<?xml version="1.0" standalone="no"?>
<!DOCTYPE svg PUBLIC "-//W3C//DTD SVG 20010904//EN"
 "http://www.w3.org/TR/2001/REC-SVG-20010904/DTD/svg10.dtd">
<svg version="1.0" xmlns="http://www.w3.org/2000/svg"
 width="100.000000pt" height="100.000000pt" viewBox="0 0 100.000000 100.000000"
 preserveAspectRatio="xMidYMid meet">
<metadata>
Created by potrace 1.14, written by Peter Selinger 2001-2017
</metadata>
<g transform="translate(0.000000,100.000000) scale(0.100000,-0.100000)"
fill="#000000" stroke="none">
<path d="M452 903 c-16 -6 3 -33 24 -33 10 0 14 -13 14 -40 0 -36 -2 -40 -25
-40 -14 0 -41 -6 -60 -14 -29 -13 -35 -13 -46 0 -9 11 -9 17 1 29 10 12 9 15
-4 15 -23 0 -56 -18 -56 -30 0 -6 11 -10 25 -10 37 0 30 -19 -24 -73 l-49 -47
-30 17 c-26 15 -30 22 -25 47 9 44 -17 29 -47 -26 -26 -50 -22 -72 9 -44 18
16 21 16 51 1 26 -13 31 -21 25 -38 -3 -12 -11 -41 -17 -64 -8 -36 -14 -43
-34 -43 -15 0 -24 6 -24 15 0 8 -4 15 -10 15 -10 0 -12 -6 -12 -40 0 -34 2
-40 12 -40 6 0 10 7 10 15 0 9 9 15 24 15 21 0 26 -7 35 -48 5 -26 13 -55 16
-64 5 -12 -2 -21 -25 -33 -30 -15 -33 -15 -51 1 -31 28 -35 6 -9 -44 30 -56
56 -70 47 -25 -5 26 -2 32 26 45 32 15 32 15 78 -31 47 -49 52 -71 16 -71 -21
0 -21 -1 3 -20 31 -24 43 -25 36 -2 -11 34 7 44 47 27 20 -8 48 -15 62 -15 22
0 25 -4 25 -38 0 -32 -4 -41 -27 -51 -22 -10 -24 -14 -12 -22 18 -11 90 -11
108 0 12 8 10 12 -12 22 -23 10 -27 19 -27 51 0 34 3 38 25 38 14 0 42 7 62
15 19 8 37 15 38 15 1 0 9 -14 16 -32 10 -24 10 -33 1 -36 -7 -2 -12 -8 -12
-13 0 -17 29 -9 57 16 24 22 25 25 8 22 -13 -2 -26 6 -37 22 -17 25 -16 25 32
73 l50 49 27 -18 c16 -9 29 -18 31 -19 2 -1 -1 -11 -7 -23 -8 -14 -8 -22 1
-27 21 -13 82 85 64 104 -3 3 -14 -3 -25 -12 -18 -16 -21 -16 -51 -1 -23 12
-30 21 -25 33 3 9 11 38 16 64 11 48 25 61 35 33 11 -28 24 -15 24 24 0 43
-15 63 -23 31 -9 -34 -25 -22 -36 28 -5 26 -13 55 -16 64 -5 12 2 21 25 33 30
15 33 15 51 -1 11 -9 22 -15 25 -12 18 19 -43 117 -64 104 -9 -5 -9 -13 -1
-27 12 -24 13 -22 -25 -41 -29 -15 -30 -15 -77 31 -38 37 -45 49 -38 63 6 10
21 18 37 18 l27 1 -28 24 c-15 14 -38 25 -49 25 -20 0 -20 -1 -5 -18 15 -16
15 -20 2 -39 -14 -21 -17 -21 -50 -7 -19 8 -46 14 -60 14 -23 0 -25 4 -25 40
0 25 5 40 13 40 6 0 19 5 27 10 13 9 13 11 0 20 -16 10 -85 12 -108 3z m88
-193 c0 -24 -26 -38 -42 -22 -16 16 -2 42 22 42 13 0 20 -7 20 -20z m-160 -30
c20 -13 2 -44 -29 -48 -29 -5 -40 27 -16 44 22 16 25 17 45 4z m313 -38 c22
-24 7 -47 -26 -38 -25 6 -42 30 -31 47 9 15 40 10 57 -9z m-149 -85 c9 -15 7
-21 -8 -33 -24 -17 -68 -18 -84 -2 -16 16 -15 45 1 52 26 11 80 1 91 -17z
m-234 -41 c-13 -13 -35 7 -25 24 5 8 11 8 21 -1 10 -8 12 -15 4 -23z m330 -2
c0 -8 -7 -14 -15 -14 -15 0 -21 21 -9 33 10 9 24 -2 24 -19z m88 -41 c-4 -22
-48 -31 -48 -10 0 19 10 27 32 27 13 0 18 -6 16 -17z m-308 -2 c0 -5 -7 -14
-15 -21 -18 -15 -42 1 -31 19 8 13 46 15 46 2z m106 -52 c10 -17 -13 -36 -27
-22 -12 12 -4 33 11 33 5 0 12 -5 16 -11z m-146 -24 c29 -35 -18 -72 -68 -54
-24 9 -31 54 -9 62 25 11 65 7 77 -8z m282 -22 c20 -18 24 -58 7 -68 -32 -20
-87 33 -73 70 8 20 43 19 66 -2z m-159 -75 c7 -21 -4 -38 -23 -38 -23 0 -32
13 -24 34 7 19 40 21 47 4z"/>
</g>
</svg>
